<svg id="svg" version="1.1" xmlns="http://www.w3.org/2000/svg" xmlns:xlink="http://www.w3.org/1999/xlink" width="400" height="396.3963963963964" viewBox="0, 0, 400,396.3963963963964"><g id="svgg"><path id="path0" d="M189.262 14.888 C 189.607 14.954,190.105 14.951,190.371 14.882 C 190.636 14.813,190.353 14.758,189.744 14.762 C 189.134 14.765,188.917 14.821,189.262 14.888 M193.832 14.883 C 194.099 14.952,194.536 14.952,194.802 14.883 C 195.069 14.813,194.851 14.756,194.317 14.756 C 193.784 14.756,193.565 14.813,193.832 14.883 M186.833 20.964 C 80.297 24.407,0.933 119.709,17.078 224.809 C 32.352 324.245,127.728 391.031,226.493 371.448 C 318.735 353.159,380.684 265.485,367.123 172.419 C 354.182 83.609,276.173 18.077,186.833 20.964 M90.820 131.370 C 92.544 132.516,92.432 130.524,92.585 162.855 L 92.723 192.238 93.572 194.607 C 96.364 202.404,100.474 204.851,110.779 204.851 C 117.760 204.851,117.531 204.775,119.382 207.711 C 122.269 212.290,127.223 217.175,132.155 220.305 C 133.261 221.006,134.165 221.688,134.165 221.821 C 134.165 222.454,96.443 221.914,94.267 221.250 C 84.873 218.385,78.108 211.422,75.627 202.067 L 75.006 199.723 74.911 167.290 C 74.800 129.728,74.644 131.971,77.431 131.133 C 78.875 130.699,90.110 130.898,90.820 131.370 M165.904 142.081 C 173.958 143.476,181.540 147.452,187.605 153.462 L 190.734 156.561 193.707 153.610 C 210.315 137.123,237.136 137.523,252.687 154.489 L 254.521 156.491 257.060 153.895 C 275.454 135.080,306.113 138.024,320.630 159.999 C 333.594 179.623,327.131 206.489,306.652 218.105 C 290.120 227.482,268.347 224.046,256.094 210.125 L 254.638 208.470 251.435 211.596 C 234.365 228.257,207.314 227.243,191.743 209.358 L 190.720 208.183 189.541 209.497 C 164.158 237.774,117.930 220.274,117.952 182.398 C 117.967 156.658,140.532 137.685,165.904 142.081 M156.341 159.561 C 137.266 161.857,128.916 184.888,142.245 198.443 C 156.846 213.293,181.722 202.978,181.610 182.121 C 181.539 168.847,169.379 157.992,156.341 159.561 M219.495 159.682 C 200.713 162.271,193.155 185.727,206.816 199.030 C 219.346 211.231,240.980 204.955,245.034 187.942 C 248.790 172.183,235.499 157.477,219.495 159.682 M284.130 159.552 C 280.767 160.144,279.842 160.376,277.974 161.095 C 261.600 167.392,258.306 189.855,272.190 200.538 C 290.730 214.805,316.342 195.562,307.680 173.873 C 304.023 164.717,292.969 157.994,284.130 159.552 M198.865 205.059 C 199.384 205.672,199.384 205.693,198.865 206.306 L 198.337 206.930 198.960 206.402 C 199.574 205.883,199.595 205.883,200.208 206.402 L 200.832 206.930 200.304 206.306 C 199.784 205.693,199.784 205.672,200.304 205.059 L 200.832 204.435 200.208 204.963 C 199.595 205.483,199.574 205.483,198.960 204.963 L 198.337 204.435 198.865 205.059 M257.142 218.045 C 261.224 221.545,265.876 224.441,269.577 225.786 C 272.186 226.734,271.933 224.188,271.933 249.523 L 271.933 271.933 263.202 271.933 L 254.470 271.933 254.470 243.936 C 254.470 228.538,254.518 215.939,254.578 215.939 C 254.637 215.939,255.791 216.887,257.142 218.045 M89.248 244.514 C 90.959 245.113,93.694 246.830,93.694 247.305 C 93.694 247.773,91.689 250.312,91.319 250.312 C 91.144 250.312,90.214 249.906,89.253 249.411 C 84.766 247.097,79.551 248.738,80.665 252.112 C 81.055 253.294,81.666 253.665,86.855 255.876 C 92.568 258.310,94.231 259.879,94.680 263.262 C 95.662 270.666,85.908 275.010,77.655 270.844 C 74.025 269.012,73.791 268.496,75.646 266.406 L 76.984 264.898 78.478 265.880 C 83.821 269.390,90.562 268.135,89.283 263.869 C 88.889 262.551,88.223 262.083,84.407 260.439 C 76.903 257.205,75.418 255.761,75.405 251.683 C 75.385 245.715,82.364 242.100,89.248 244.514 M119.612 246.431 L 119.612 248.510 115.388 248.587 L 111.163 248.663 111.091 260.229 L 111.019 271.795 108.524 271.795 L 106.029 271.795 105.957 260.229 L 105.884 248.663 101.660 248.587 L 97.436 248.510 97.352 246.737 C 97.306 245.763,97.334 244.794,97.414 244.586 C 97.534 244.273,99.468 244.220,108.586 244.280 L 119.612 244.352 119.612 246.431 M135.527 244.600 C 135.978 245.144,144.144 270.403,144.144 271.255 L 144.144 271.954 141.583 271.875 L 139.022 271.795 138.014 268.191 L 137.006 264.588 132.587 264.512 L 128.169 264.436 127.073 268.115 L 125.978 271.795 123.579 271.875 C 121.460 271.945,121.170 271.897,121.084 271.459 C 120.961 270.830,129.422 244.700,129.837 244.426 C 130.427 244.036,135.180 244.182,135.527 244.600 M161.334 244.727 C 168.105 246.865,169.332 256.327,163.272 259.669 C 161.560 260.613,161.386 259.905,164.795 265.871 C 168.445 272.260,168.433 271.975,165.048 271.874 L 162.390 271.795 159.551 266.667 L 156.712 261.538 154.731 261.457 L 152.750 261.376 152.674 266.585 L 152.599 271.795 150.104 271.795 L 147.609 271.795 147.537 258.351 C 147.497 250.956,147.530 244.737,147.609 244.530 C 147.788 244.063,159.773 244.235,161.334 244.727 M191.961 246.431 L 191.961 248.510 187.737 248.587 L 183.513 248.663 183.440 260.229 L 183.368 271.795 180.873 271.795 L 178.378 271.795 178.306 260.229 L 178.234 248.663 174.009 248.587 L 169.785 248.510 169.702 246.737 C 169.656 245.763,169.684 244.792,169.765 244.581 C 169.888 244.260,171.745 244.209,180.937 244.274 L 191.961 244.352 191.961 246.431 M214.414 246.431 L 214.414 248.510 208.108 248.585 L 201.802 248.659 201.802 251.975 L 201.802 255.291 207.970 255.365 L 214.137 255.440 214.137 257.519 L 214.137 259.598 207.970 259.673 L 201.802 259.747 201.802 263.623 L 201.802 267.498 207.878 267.498 C 215.344 267.498,214.830 267.322,214.830 269.888 L 214.830 271.941 205.752 271.868 L 196.674 271.795 196.597 258.628 C 196.554 251.386,196.588 245.178,196.672 244.833 L 196.825 244.206 205.620 244.279 L 214.414 244.352 214.414 246.431 M234.153 244.875 C 238.429 246.242,240.492 250.643,239.100 255.429 C 238.578 257.226,236.300 259.833,234.958 260.169 C 233.993 260.412,233.842 260.030,237.257 265.953 C 240.817 272.126,240.811 271.933,237.418 271.933 L 234.841 271.933 231.973 266.672 L 229.106 261.410 227.102 261.405 L 225.099 261.400 225.023 266.597 L 224.948 271.795 222.523 271.875 L 220.097 271.955 220.097 258.246 C 220.097 247.546,220.173 244.503,220.444 244.382 C 221.289 244.003,232.710 244.414,234.153 244.875 M152.737 252.629 L 152.737 256.965 155.440 256.963 C 159.765 256.961,161.284 256.188,161.840 253.707 C 162.627 250.191,160.885 248.654,155.863 248.432 L 152.737 248.294 152.737 252.629 M225.087 252.653 L 225.087 257.011 228.394 256.919 C 232.908 256.792,234.369 255.731,234.358 252.585 C 234.348 249.535,233.032 248.645,228.220 248.432 L 225.087 248.294 225.087 252.653 M132.408 249.203 C 132.324 249.432,131.583 252.082,130.761 255.094 L 129.266 260.568 132.566 260.568 C 135.580 260.568,135.853 260.526,135.718 260.083 C 135.637 259.816,135.055 257.727,134.424 255.440 C 132.620 248.901,132.572 248.755,132.408 249.203 " stroke="none" fill="#652ad2" fill-rule="evenodd"></path><path id="path1" d="M183.229 15.160 C 94.000 19.333,20.189 88.400,10.281 176.992 C -3.119 296.804,99.916 396.345,219.127 378.759 C 320.490 363.805,389.868 267.354,372.135 166.043 C 356.316 75.670,275.174 10.860,183.229 15.160 M202.356 21.072 C 304.999 27.346,380.433 118.283,367.681 220.374 C 359.117 288.938,310.016 347.166,243.798 367.286 C 129.893 401.896,15.248 317.125,15.120 198.198 C 15.010 95.856,100.635 14.855,202.356 21.072 M76.749 131.582 C 75.012 132.660,75.121 130.348,75.121 166.104 C 75.121 187.626,75.220 199.208,75.413 200.296 C 77.233 210.574,84.848 218.626,95.357 221.386 C 97.083 221.839,123.724 222.273,131.947 221.982 L 134.304 221.899 131.947 220.356 C 126.744 216.948,122.377 212.631,119.212 207.766 C 117.365 204.927,117.976 205.138,111.573 205.128 C 102.323 205.113,98.908 203.775,95.544 198.852 C 92.316 194.127,92.308 194.036,92.308 161.121 C 92.308 131.781,92.346 132.588,90.889 131.568 C 89.928 130.894,77.838 130.907,76.749 131.582 M151.629 142.192 C 120.172 147.950,107.072 185.531,128.140 209.577 C 143.984 227.661,173.036 227.834,188.965 209.939 L 190.617 208.084 193.646 211.110 C 210.414 227.865,238.616 227.175,253.287 209.652 L 254.451 208.262 257.579 211.344 C 288.122 241.443,338.262 210.467,325.167 169.588 C 315.974 140.889,278.882 132.223,257.364 153.747 L 254.554 156.558 251.393 153.457 C 235.183 137.557,210.106 137.613,193.954 153.587 L 190.679 156.825 187.926 153.995 C 178.518 144.325,164.635 139.811,151.629 142.192 M163.039 159.781 C 181.228 163.273,188.078 185.428,175.052 198.635 C 160.479 213.411,135.640 203.160,135.707 182.398 C 135.755 167.777,148.736 157.034,163.039 159.781 M227.072 159.781 C 245.002 163.224,252.023 185.116,239.444 198.359 C 225.445 213.096,200.985 204.044,199.686 183.645 C 198.744 168.852,212.390 156.962,227.072 159.781 M292.723 160.214 C 310.599 165.374,315.348 188.917,300.840 200.447 C 285.164 212.904,262.550 201.327,263.419 181.289 C 264.060 166.498,278.506 156.109,292.723 160.214 M200.001 204.850 C 200.554 204.391,200.879 204.709,200.421 205.260 C 200.139 205.601,200.139 205.764,200.421 206.105 C 200.879 206.657,200.554 206.974,200.001 206.515 C 199.650 206.223,199.485 206.241,199.071 206.615 C 198.414 207.210,198.061 206.848,198.656 206.190 C 199.084 205.718,199.084 205.648,198.656 205.175 C 198.061 204.517,198.414 204.155,199.071 204.750 C 199.485 205.124,199.650 205.142,200.001 204.850 M254.489 243.867 L 254.470 271.933 263.063 271.933 L 271.656 271.933 271.693 270.755 C 271.713 270.107,271.700 260.035,271.665 248.371 C 271.597 225.854,271.617 226.195,270.358 226.195 C 269.128 226.195,263.181 223.014,260.376 220.856 C 258.623 219.506,256.133 218.019,256.133 218.320 C 256.133 218.420,255.966 218.363,255.761 218.193 C 255.556 218.023,255.307 217.966,255.207 218.067 C 255.106 218.167,255.015 217.948,255.005 217.579 C 254.994 217.211,254.878 216.660,254.747 216.355 C 254.612 216.040,254.500 227.951,254.489 243.867 " stroke="none" fill="#efeff2" fill-rule="evenodd"></path><path id="path2" d="M81.978 244.220 C 74.460 246.117,73.076 254.801,79.755 258.169 C 80.484 258.537,82.453 259.427,84.130 260.148 C 88.812 262.160,89.536 262.790,89.536 264.857 C 89.536 268.423,83.095 269.184,78.598 266.149 C 76.966 265.048,77.037 265.037,75.699 266.597 C 74.261 268.276,74.280 268.549,75.913 269.663 C 83.616 274.912,93.985 272.063,94.466 264.565 C 94.738 260.328,93.208 258.700,86.141 255.705 C 81.306 253.657,80.388 252.943,80.388 251.233 C 80.388 248.120,85.188 247.138,89.476 249.373 L 91.309 250.328 92.351 249.142 C 93.697 247.610,93.675 247.190,92.201 246.176 C 89.505 244.321,84.997 243.459,81.978 244.220 M97.411 244.870 C 97.331 245.079,97.304 245.921,97.351 246.741 L 97.436 248.233 101.733 248.371 L 106.029 248.510 106.168 260.152 L 106.306 271.795 108.524 271.795 L 110.742 271.795 110.880 260.152 L 111.019 248.510 115.246 248.434 L 119.473 248.357 119.473 246.424 L 119.473 244.491 108.515 244.491 C 99.496 244.491,97.531 244.558,97.411 244.870 M129.596 244.837 C 126.753 253.275,121.132 271.244,121.243 271.534 C 121.442 272.054,125.423 272.108,125.763 271.596 C 125.887 271.410,126.429 269.758,126.968 267.923 L 127.948 264.588 132.531 264.512 L 137.114 264.436 138.026 267.700 C 139.287 272.217,139.043 271.933,141.668 271.933 C 143.327 271.933,143.922 271.835,144.035 271.540 C 144.165 271.201,141.646 263.157,136.759 248.302 L 135.505 244.491 132.609 244.491 C 130.539 244.491,129.679 244.590,129.596 244.837 M147.814 258.143 L 147.886 271.795 150.080 271.877 C 152.866 271.981,152.728 272.278,152.733 266.169 L 152.737 261.098 154.743 261.180 L 156.749 261.261 159.109 265.566 C 160.407 267.934,161.746 270.335,162.084 270.902 L 162.698 271.933 165.047 271.933 C 168.191 271.933,168.202 272.105,164.661 265.932 C 162.955 262.958,161.601 260.487,161.653 260.442 C 161.704 260.396,162.245 260.105,162.855 259.795 C 167.952 257.202,168.389 248.847,163.578 245.963 C 161.464 244.695,160.074 244.491,153.553 244.491 L 147.743 244.491 147.814 258.143 M169.924 246.421 L 169.924 248.357 174.151 248.434 L 178.378 248.510 178.517 260.152 L 178.656 271.795 180.873 271.795 L 183.091 271.795 183.229 260.152 L 183.368 248.510 187.665 248.371 L 191.961 248.233 191.961 246.431 L 191.961 244.629 180.942 244.557 L 169.924 244.484 169.924 246.421 M196.879 258.143 L 196.951 271.795 205.821 271.795 L 214.692 271.795 214.692 269.854 L 214.692 267.914 208.177 267.775 L 201.663 267.637 201.586 263.692 L 201.509 259.747 207.823 259.673 L 214.137 259.598 214.137 257.658 L 214.137 255.717 207.900 255.579 L 201.663 255.440 201.663 251.975 L 201.663 248.510 207.970 248.436 L 214.276 248.361 214.276 246.426 L 214.276 244.491 205.541 244.491 L 196.807 244.491 196.879 258.143 M220.164 258.121 L 220.236 271.795 222.592 271.795 L 224.948 271.795 225.023 266.459 L 225.099 261.123 227.102 261.129 L 229.106 261.136 232.026 266.465 L 234.945 271.795 237.366 271.875 C 240.598 271.982,240.606 272.122,237.011 265.844 C 235.325 262.898,233.979 260.459,234.020 260.424 C 234.062 260.388,234.595 260.105,235.204 259.795 C 239.635 257.541,240.821 250.535,237.380 246.942 C 235.516 244.996,233.925 244.638,226.678 244.538 L 220.092 244.447 220.164 258.121 M134.720 255.925 L 136.024 260.568 132.567 260.568 C 129.408 260.568,129.122 260.527,129.247 260.083 C 129.323 259.816,130.030 257.228,130.819 254.331 C 131.609 251.435,132.325 248.877,132.411 248.649 C 132.501 248.407,132.745 248.872,132.992 249.757 C 133.226 250.596,134.003 253.371,134.720 255.925 M160.073 248.926 C 161.522 249.660,162.228 251.038,162.099 252.880 C 161.883 255.977,160.325 257.031,155.717 257.196 L 152.737 257.303 152.737 252.814 L 152.737 248.325 155.994 248.418 C 158.178 248.480,159.522 248.647,160.073 248.926 M232.741 249.036 C 235.374 250.620,235.119 254.876,232.293 256.533 C 231.509 256.992,230.726 257.120,228.205 257.201 L 225.087 257.302 225.087 252.808 L 225.087 248.314 228.482 248.415 C 231.185 248.495,232.054 248.622,232.741 249.036 " stroke="none" fill="#fba306" fill-rule="evenodd"></path><path id="path3" d="M191.337 14.890 C 191.757 14.954,192.443 14.954,192.862 14.890 C 193.281 14.827,192.938 14.775,192.100 14.775 C 191.261 14.775,190.918 14.827,191.337 14.890 M182.611 15.170 C 183.109 15.231,183.857 15.230,184.274 15.167 C 184.690 15.104,184.283 15.053,183.368 15.055 C 182.453 15.056,182.112 15.108,182.611 15.170 M199.792 15.169 C 200.288 15.231,201.098 15.231,201.594 15.169 C 202.089 15.108,201.684 15.058,200.693 15.058 C 199.702 15.058,199.297 15.108,199.792 15.169 M178.174 15.442 C 178.519 15.508,179.017 15.506,179.283 15.436 C 179.548 15.367,179.265 15.313,178.656 15.316 C 178.046 15.319,177.829 15.376,178.174 15.442 M204.782 15.442 C 205.125 15.508,205.686 15.508,206.029 15.442 C 206.372 15.376,206.091 15.322,205.405 15.322 C 204.719 15.322,204.439 15.376,204.782 15.442 M174.705 15.714 C 174.972 15.784,175.409 15.784,175.676 15.714 C 175.942 15.645,175.724 15.588,175.191 15.588 C 174.657 15.588,174.439 15.645,174.705 15.714 M208.247 15.714 C 208.514 15.784,208.950 15.784,209.217 15.714 C 209.484 15.645,209.265 15.588,208.732 15.588 C 208.198 15.588,207.980 15.645,208.247 15.714 M185.516 20.994 C 186.240 21.051,187.426 21.051,188.150 20.994 C 188.874 20.937,188.281 20.890,186.833 20.890 C 185.385 20.890,184.792 20.937,185.516 20.994 M195.773 20.994 C 196.497 21.051,197.682 21.051,198.406 20.994 C 199.130 20.937,198.538 20.890,197.089 20.890 C 195.641 20.890,195.049 20.937,195.773 20.994 M179.834 21.263 C 180.177 21.329,180.738 21.329,181.081 21.263 C 181.424 21.197,181.143 21.143,180.457 21.143 C 179.771 21.143,179.491 21.197,179.834 21.263 M202.841 21.263 C 203.184 21.329,203.746 21.329,204.089 21.263 C 204.432 21.197,204.151 21.143,203.465 21.143 C 202.779 21.143,202.498 21.197,202.841 21.263 M176.369 21.536 C 176.635 21.605,177.072 21.605,177.339 21.536 C 177.606 21.466,177.387 21.409,176.854 21.409 C 176.320 21.409,176.102 21.466,176.369 21.536 M206.725 21.540 C 207.070 21.607,207.569 21.604,207.834 21.535 C 208.099 21.465,207.817 21.411,207.207 21.414 C 206.597 21.417,206.381 21.474,206.725 21.540 M109.979 34.113 C 108.798 34.717,107.831 35.273,107.831 35.349 C 107.831 35.473,112.238 33.353,112.520 33.093 C 112.913 32.731,111.835 33.164,109.979 34.113 M71.362 60.222 L 70.547 61.123 71.448 60.308 C 72.288 59.550,72.477 59.321,72.263 59.321 C 72.215 59.321,71.809 59.726,71.362 60.222 M314.345 61.954 C 314.862 62.488,315.348 62.924,315.424 62.924 C 315.500 62.924,315.140 62.488,314.622 61.954 C 314.105 61.421,313.620 60.984,313.543 60.984 C 313.467 60.984,313.828 61.421,314.345 61.954 M68.731 62.578 L 67.775 63.617 68.815 62.662 C 69.783 61.773,69.982 61.538,69.770 61.538 C 69.724 61.538,69.256 62.006,68.731 62.578 M321.137 68.468 C 323.878 71.213,326.183 73.458,326.259 73.458 C 326.335 73.458,324.155 71.213,321.414 68.468 C 318.673 65.724,316.368 63.479,316.291 63.479 C 316.215 63.479,318.395 65.724,321.137 68.468 M307.692 63.843 C 307.692 63.891,308.098 64.296,308.593 64.744 L 309.494 65.558 308.680 64.657 C 307.921 63.817,307.692 63.629,307.692 63.843 M74.688 65.211 L 73.874 66.112 74.775 65.298 C 75.615 64.539,75.803 64.310,75.589 64.310 C 75.541 64.310,75.136 64.716,74.688 65.211 M62.505 68.538 L 58.628 72.488 62.578 68.611 C 64.751 66.478,66.528 64.701,66.528 64.661 C 66.528 64.462,66.107 64.868,62.505 68.538 M311.157 67.082 C 311.753 67.692,312.302 68.191,312.379 68.191 C 312.455 68.191,312.030 67.692,311.435 67.082 C 310.839 66.473,310.289 65.974,310.213 65.974 C 310.137 65.974,310.562 66.473,311.157 67.082 M71.795 67.775 C 71.122 68.462,70.633 69.023,70.709 69.023 C 70.785 69.023,71.399 68.462,72.072 67.775 C 72.745 67.089,73.234 66.528,73.158 66.528 C 73.081 66.528,72.468 67.089,71.795 67.775 M316.979 72.626 C 318.956 74.608,320.636 76.230,320.713 76.230 C 320.789 76.230,319.233 74.608,317.256 72.626 C 315.278 70.644,313.598 69.023,313.522 69.023 C 313.445 69.023,315.001 70.644,316.979 72.626 M66.660 72.696 L 64.449 74.983 66.736 72.772 C 68.860 70.718,69.149 70.409,68.947 70.409 C 68.905 70.409,67.876 71.438,66.660 72.696 M56.397 74.913 L 55.301 76.091 56.480 74.996 C 57.575 73.977,57.785 73.735,57.575 73.735 C 57.530 73.735,57.000 74.265,56.397 74.913 M327.928 75.537 C 328.445 76.071,328.931 76.507,329.007 76.507 C 329.083 76.507,328.722 76.071,328.205 75.537 C 327.688 75.003,327.202 74.567,327.126 74.567 C 327.050 74.567,327.411 75.003,327.928 75.537 M54.175 77.408 L 53.361 78.309 54.262 77.495 C 54.757 77.047,55.163 76.642,55.163 76.594 C 55.163 76.380,54.934 76.568,54.175 77.408 M61.816 77.755 C 61.142 78.441,60.654 79.002,60.730 79.002 C 60.806 79.002,61.420 78.441,62.093 77.755 C 62.766 77.069,63.255 76.507,63.178 76.507 C 63.102 76.507,62.489 77.069,61.816 77.755 M329.314 77.148 C 329.314 77.196,329.719 77.602,330.215 78.049 L 331.116 78.863 330.302 77.963 C 329.543 77.123,329.314 76.934,329.314 77.148 M322.650 78.517 C 323.798 79.741,324.047 79.961,324.047 79.753 C 324.047 79.708,323.455 79.116,322.730 78.436 L 321.414 77.200 322.650 78.517 M59.165 80.735 L 58.351 81.635 59.252 80.821 C 59.747 80.374,60.152 79.968,60.152 79.920 C 60.152 79.706,59.924 79.895,59.165 80.735 M324.324 80.475 C 324.324 80.523,324.730 80.928,325.225 81.376 L 326.126 82.190 325.312 81.289 C 324.553 80.449,324.324 80.261,324.324 80.475 M81.027 131.046 C 82.674 131.095,85.294 131.094,86.848 131.045 C 88.402 130.996,87.055 130.956,83.853 130.956 C 80.651 130.956,79.380 130.996,81.027 131.046 M74.978 165.627 C 74.978 183.160,75.011 190.292,75.052 181.476 C 75.093 172.659,75.093 158.314,75.052 149.597 C 75.011 140.881,74.978 148.094,74.978 165.627 M92.441 162.162 C 92.441 177.179,92.475 183.323,92.516 175.814 C 92.557 168.306,92.557 156.019,92.516 148.510 C 92.475 141.001,92.441 147.145,92.441 162.162 M157.527 141.576 C 158.256 141.634,159.379 141.633,160.022 141.575 C 160.666 141.517,160.069 141.470,158.697 141.471 C 157.325 141.471,156.799 141.519,157.527 141.576 M221.698 141.575 C 222.350 141.634,223.348 141.633,223.916 141.574 C 224.484 141.514,223.950 141.466,222.730 141.467 C 221.511 141.468,221.046 141.517,221.698 141.575 M285.170 141.575 C 285.818 141.633,286.878 141.633,287.526 141.575 C 288.174 141.517,287.644 141.469,286.348 141.469 C 285.052 141.469,284.522 141.517,285.170 141.575 M187.526 153.569 C 188.739 154.789,189.793 155.787,189.869 155.787 C 189.945 155.787,189.016 154.789,187.803 153.569 C 186.591 152.349,185.536 151.351,185.460 151.351 C 185.384 151.351,186.313 152.349,187.526 153.569 M129.584 153.638 L 127.651 155.648 129.660 153.715 C 131.527 151.920,131.797 151.629,131.593 151.629 C 131.551 151.629,130.647 152.533,129.584 153.638 M193.617 153.638 L 191.684 155.648 193.694 153.715 C 195.560 151.920,195.830 151.629,195.627 151.629 C 195.584 151.629,194.680 152.533,193.617 153.638 M251.559 153.569 C 252.618 154.636,253.547 155.509,253.623 155.509 C 253.700 155.509,252.895 154.636,251.836 153.569 C 250.777 152.502,249.849 151.629,249.772 151.629 C 249.696 151.629,250.500 152.502,251.559 153.569 M315.177 153.430 C 315.694 153.964,316.179 154.401,316.256 154.401 C 316.332 154.401,315.971 153.964,315.454 153.430 C 314.937 152.897,314.451 152.460,314.375 152.460 C 314.299 152.460,314.660 152.897,315.177 153.430 M269.985 166.251 L 268.191 168.122 270.062 166.328 C 271.091 165.342,271.933 164.500,271.933 164.457 C 271.933 164.253,271.651 164.513,269.985 166.251 M142.204 166.182 C 141.530 166.868,141.042 167.429,141.118 167.429 C 141.194 167.429,141.808 166.868,142.481 166.182 C 143.154 165.495,143.643 164.934,143.567 164.934 C 143.490 164.934,142.877 165.495,142.204 166.182 M174.775 166.043 C 175.370 166.653,175.920 167.152,175.996 167.152 C 176.072 167.152,175.647 166.653,175.052 166.043 C 174.456 165.433,173.907 164.934,173.831 164.934 C 173.754 164.934,174.179 165.433,174.775 166.043 M206.237 166.182 C 205.564 166.868,205.075 167.429,205.151 167.429 C 205.228 167.429,205.841 166.868,206.514 166.182 C 207.188 165.495,207.676 164.934,207.600 164.934 C 207.524 164.934,206.910 165.495,206.237 166.182 M238.935 166.112 C 239.615 166.836,240.207 167.429,240.252 167.429 C 240.460 167.429,240.240 167.180,239.016 166.031 L 237.699 164.796 238.935 166.112 M201.927 172.167 C 201.683 172.639,201.533 173.074,201.593 173.134 C 201.653 173.194,201.910 172.808,202.163 172.276 C 202.734 171.081,202.536 170.990,201.927 172.167 M243.297 172.276 C 243.551 172.808,243.808 173.194,243.868 173.134 C 243.995 173.007,243.153 171.310,242.963 171.310 C 242.894 171.310,243.044 171.745,243.297 172.276 M327.172 179.903 C 327.172 180.589,327.226 180.870,327.292 180.527 C 327.358 180.184,327.358 179.622,327.292 179.279 C 327.226 178.936,327.172 179.217,327.172 179.903 M199.670 181.150 C 199.672 182.065,199.723 182.406,199.785 181.908 C 199.847 181.409,199.846 180.661,199.782 180.245 C 199.719 179.828,199.669 180.236,199.670 181.150 M135.652 182.536 C 135.653 184.061,135.699 184.649,135.756 183.844 C 135.812 183.038,135.811 181.791,135.754 181.072 C 135.697 180.353,135.651 181.012,135.652 182.536 M181.636 180.873 C 181.639 181.483,181.696 181.700,181.762 181.355 C 181.829 181.010,181.826 180.511,181.757 180.246 C 181.687 179.981,181.633 180.263,181.636 180.873 M245.698 182.536 C 245.697 183.909,245.744 184.505,245.802 183.861 C 245.860 183.218,245.861 182.095,245.804 181.367 C 245.746 180.638,245.699 181.164,245.698 182.536 M368.186 181.289 C 368.186 181.823,368.243 182.041,368.313 181.774 C 368.383 181.507,368.383 181.071,368.313 180.804 C 368.243 180.537,368.186 180.755,368.186 181.289 M15.588 181.843 C 15.588 182.377,15.645 182.595,15.714 182.328 C 15.784 182.062,15.784 181.625,15.714 181.358 C 15.645 181.091,15.588 181.310,15.588 181.843 M374.290 182.814 C 374.293 183.423,374.350 183.640,374.416 183.295 C 374.483 182.951,374.480 182.452,374.411 182.187 C 374.341 181.922,374.287 182.204,374.290 182.814 M9.495 183.645 C 9.498 184.255,9.555 184.472,9.621 184.127 C 9.687 183.782,9.685 183.283,9.615 183.018 C 9.546 182.753,9.492 183.035,9.495 183.645 M181.642 184.061 C 181.642 184.747,181.696 185.028,181.762 184.685 C 181.828 184.342,181.828 183.780,181.762 183.437 C 181.696 183.094,181.642 183.375,181.642 184.061 M199.649 183.784 C 199.649 184.317,199.706 184.536,199.775 184.269 C 199.845 184.002,199.845 183.565,199.775 183.299 C 199.706 183.032,199.649 183.250,199.649 183.784 M368.475 184.615 C 368.475 185.301,368.529 185.582,368.595 185.239 C 368.661 184.896,368.661 184.335,368.595 183.992 C 368.529 183.649,368.475 183.929,368.475 184.615 M327.166 185.031 C 327.169 185.641,327.226 185.858,327.292 185.513 C 327.359 185.168,327.356 184.669,327.287 184.404 C 327.217 184.139,327.163 184.421,327.166 185.031 M15.322 185.447 C 15.322 186.133,15.376 186.414,15.442 186.071 C 15.508 185.728,15.508 185.166,15.442 184.823 C 15.376 184.480,15.322 184.761,15.322 185.447 M374.577 186.694 C 374.579 187.457,374.633 187.736,374.696 187.314 C 374.760 186.893,374.759 186.269,374.693 185.928 C 374.627 185.587,374.575 185.932,374.577 186.694 M9.231 187.942 C 9.231 188.780,9.283 189.123,9.346 188.704 C 9.410 188.285,9.410 187.599,9.346 187.179 C 9.283 186.760,9.231 187.103,9.231 187.942 M368.762 189.189 C 368.764 190.104,368.816 190.445,368.877 189.947 C 368.939 189.448,368.938 188.700,368.874 188.283 C 368.811 187.867,368.761 188.274,368.762 189.189 M15.060 190.575 C 15.061 191.642,15.111 192.045,15.171 191.470 C 15.231 190.895,15.230 190.022,15.169 189.530 C 15.108 189.037,15.059 189.508,15.060 190.575 M374.895 197.921 C 374.895 201.809,374.934 203.399,374.982 201.455 C 375.030 199.511,375.030 196.331,374.982 194.387 C 374.934 192.443,374.895 194.033,374.895 197.921 M8.985 197.782 C 8.985 200.527,9.027 201.612,9.077 200.194 C 9.128 198.776,9.127 196.531,9.077 195.204 C 9.026 193.878,8.985 195.038,8.985 197.782 M369.050 197.921 C 369.050 199.217,369.098 199.747,369.157 199.099 C 369.215 198.451,369.215 197.391,369.157 196.743 C 369.098 196.095,369.050 196.625,369.050 197.921 M140.541 196.899 C 140.541 196.947,140.946 197.352,141.441 197.800 L 142.342 198.614 141.528 197.713 C 140.769 196.873,140.541 196.685,140.541 196.899 M302.551 198.822 L 301.455 200.000 302.633 198.904 C 303.729 197.885,303.939 197.644,303.729 197.644 C 303.684 197.644,303.154 198.174,302.551 198.822 M142.758 199.117 C 142.758 199.164,143.164 199.570,143.659 200.017 L 144.560 200.832 143.746 199.931 C 142.987 199.091,142.758 198.902,142.758 199.117 M96.466 200.225 C 96.466 200.273,96.871 200.678,97.367 201.126 L 98.267 201.940 97.453 201.040 C 96.694 200.200,96.466 200.011,96.466 200.225 M147.193 202.493 C 147.193 202.681,149.445 203.801,149.570 203.675 C 149.628 203.617,149.117 203.298,148.435 202.966 C 147.752 202.635,147.193 202.422,147.193 202.493 M15.058 205.128 C 15.058 206.119,15.108 206.525,15.169 206.029 C 15.231 205.534,15.231 204.723,15.169 204.227 C 15.108 203.732,15.058 204.137,15.058 205.128 M198.383 204.481 C 198.281 204.584,198.404 204.896,198.656 205.175 C 199.084 205.648,199.084 205.718,198.656 206.190 C 198.061 206.848,198.414 207.210,199.071 206.615 C 199.453 206.270,199.665 206.236,199.951 206.474 C 200.438 206.878,200.783 206.541,200.379 206.055 C 200.153 205.781,200.153 205.584,200.379 205.311 C 200.783 204.824,200.438 204.487,199.951 204.892 C 199.665 205.129,199.453 205.095,199.071 204.750 C 198.795 204.500,198.485 204.379,198.383 204.481 M200.064 205.097 C 200.510 204.748,200.520 204.757,200.174 205.198 C 199.852 205.609,199.852 205.757,200.174 206.168 C 200.520 206.608,200.510 206.618,200.064 206.268 C 199.639 205.934,199.492 205.953,198.955 206.407 L 198.337 206.930 198.865 206.306 C 199.384 205.693,199.384 205.672,198.865 205.059 L 198.337 204.435 198.955 204.959 C 199.492 205.412,199.639 205.431,200.064 205.097 M108.470 205.058 C 110.117 205.107,112.736 205.107,114.291 205.058 C 115.845 205.008,114.498 204.968,111.296 204.968 C 108.094 204.969,106.822 205.009,108.470 205.058 M368.765 206.514 C 368.765 207.505,368.815 207.911,368.877 207.415 C 368.938 206.920,368.938 206.109,368.877 205.613 C 368.815 205.118,368.765 205.523,368.765 206.514 M157.651 205.605 C 158.144 205.667,159.017 205.668,159.592 205.608 C 160.167 205.548,159.764 205.498,158.697 205.496 C 157.630 205.495,157.159 205.544,157.651 205.605 M221.552 205.607 C 222.124 205.667,223.060 205.667,223.631 205.607 C 224.203 205.548,223.735 205.499,222.592 205.499 C 221.448 205.499,220.981 205.548,221.552 205.607 M285.586 205.604 C 286.005 205.667,286.691 205.667,287.110 205.604 C 287.529 205.540,287.186 205.488,286.348 205.488 C 285.509 205.488,285.166 205.540,285.586 205.604 M9.227 207.762 C 9.229 208.524,9.283 208.803,9.347 208.381 C 9.410 207.960,9.409 207.336,9.343 206.995 C 9.277 206.655,9.225 206.999,9.227 207.762 M374.573 209.009 C 374.573 209.695,374.627 209.976,374.693 209.633 C 374.759 209.290,374.759 208.728,374.693 208.385 C 374.627 208.042,374.573 208.323,374.573 209.009 M253.894 208.940 L 253.222 209.702 253.936 209.076 C 254.328 208.731,254.754 208.544,254.881 208.660 C 255.009 208.776,255.023 208.714,254.914 208.524 C 254.651 208.068,254.670 208.060,253.894 208.940 M15.322 210.395 C 15.322 211.081,15.376 211.362,15.442 211.019 C 15.508 210.676,15.508 210.114,15.442 209.771 C 15.376 209.428,15.322 209.709,15.322 210.395 M315.032 211.573 L 312.821 213.860 315.107 211.649 C 317.231 209.595,317.521 209.286,317.319 209.286 C 317.277 209.286,316.248 210.315,315.032 211.573 M257.242 211.365 C 258.224 212.356,259.090 213.167,259.166 213.167 C 259.242 213.167,258.501 212.356,257.519 211.365 C 256.537 210.374,255.671 209.563,255.595 209.563 C 255.518 209.563,256.260 210.374,257.242 211.365 M368.469 211.088 C 368.472 211.698,368.529 211.915,368.595 211.570 C 368.662 211.225,368.659 210.726,368.590 210.461 C 368.520 210.196,368.466 210.478,368.469 211.088 M192.931 210.759 C 192.931 210.807,193.337 211.212,193.832 211.660 L 194.733 212.474 193.919 211.573 C 193.160 210.733,192.931 210.545,192.931 210.759 M9.495 212.197 C 9.498 212.807,9.555 213.023,9.621 212.679 C 9.687 212.334,9.685 211.835,9.615 211.570 C 9.546 211.305,9.492 211.587,9.495 212.197 M374.290 213.028 C 374.293 213.638,374.350 213.855,374.416 213.510 C 374.483 213.165,374.480 212.667,374.411 212.401 C 374.341 212.136,374.287 212.419,374.290 213.028 M82.467 214.276 C 83.372 215.191,84.175 215.939,84.252 215.939 C 84.328 215.939,83.649 215.191,82.744 214.276 C 81.839 213.361,81.036 212.613,80.960 212.613 C 80.884 212.613,81.562 213.361,82.467 214.276 M124.451 214.345 C 125.600 215.569,125.849 215.789,125.849 215.581 C 125.849 215.536,125.256 214.944,124.532 214.264 L 123.216 213.028 124.451 214.345 M368.186 214.553 C 368.186 215.087,368.243 215.305,368.313 215.038 C 368.383 214.771,368.383 214.335,368.313 214.068 C 368.243 213.801,368.186 214.019,368.186 214.553 M9.766 215.385 C 9.766 215.918,9.823 216.137,9.893 215.870 C 9.963 215.603,9.963 215.166,9.893 214.900 C 9.823 214.633,9.766 214.851,9.766 215.385 M254.856 216.655 C 254.949 216.896,255.024 217.353,255.024 217.671 C 255.024 217.989,255.106 218.167,255.207 218.067 C 255.307 217.966,255.556 218.023,255.761 218.193 C 255.966 218.363,256.133 218.420,256.133 218.320 C 256.133 218.220,256.726 218.461,257.450 218.855 L 258.766 219.570 256.965 217.905 C 255.131 216.211,254.554 215.869,254.856 216.655 M261.309 221.505 C 261.653 221.921,263.340 222.983,263.340 222.783 C 263.340 222.718,262.810 222.316,262.162 221.889 C 261.514 221.461,261.130 221.289,261.309 221.505 M161.264 223.342 C 161.609 223.409,162.108 223.406,162.373 223.337 C 162.638 223.267,162.356 223.213,161.746 223.216 C 161.137 223.219,160.920 223.276,161.264 223.342 M225.433 223.337 C 225.700 223.407,226.137 223.407,226.403 223.337 C 226.670 223.268,226.452 223.211,225.918 223.211 C 225.385 223.211,225.166 223.268,225.433 223.337 M289.189 223.337 C 289.456 223.407,289.893 223.407,290.159 223.337 C 290.426 223.268,290.208 223.211,289.674 223.211 C 289.141 223.211,288.922 223.268,289.189 223.337 M271.169 226.631 C 271.616 227.162,271.658 228.565,271.726 245.342 L 271.799 263.479 271.866 245.296 L 271.933 227.113 271.310 226.585 C 270.687 226.058,270.687 226.058,271.169 226.631 M271.732 270.825 C 271.732 271.511,271.786 271.791,271.852 271.448 C 271.918 271.105,271.918 270.544,271.852 270.201 C 271.786 269.858,271.732 270.139,271.732 270.825 M32.178 274.290 C 32.178 274.442,32.417 275.003,32.710 275.537 C 33.002 276.071,33.241 276.383,33.241 276.230 C 33.241 276.078,33.002 275.516,32.710 274.983 C 32.417 274.449,32.178 274.137,32.178 274.290 M34.096 278.309 C 34.407 278.919,34.724 279.418,34.800 279.418 C 34.876 279.418,34.684 278.919,34.373 278.309 C 34.062 277.699,33.745 277.200,33.669 277.200 C 33.592 277.200,33.785 277.699,34.096 278.309 M27.443 278.133 C 27.443 278.434,28.820 281.081,28.977 281.081 C 29.053 281.081,28.786 280.426,28.384 279.626 C 27.611 278.086,27.443 277.820,27.443 278.133 M324.445 315.246 L 323.631 316.147 324.532 315.333 C 325.372 314.574,325.561 314.345,325.346 314.345 C 325.299 314.345,324.893 314.751,324.445 315.246 M59.044 314.986 C 59.044 315.034,59.449 315.439,59.945 315.887 L 60.845 316.701 60.031 315.800 C 59.272 314.961,59.044 314.772,59.044 314.986 M321.681 318.295 L 320.305 319.751 321.760 318.375 C 323.113 317.097,323.343 316.840,323.136 316.840 C 323.092 316.840,322.437 317.495,321.681 318.295 M63.063 319.335 C 63.968 320.249,64.771 320.998,64.848 320.998 C 64.924 320.998,64.245 320.249,63.340 319.335 C 62.435 318.420,61.632 317.672,61.556 317.672 C 61.480 317.672,62.158 318.420,63.063 319.335 M329.435 318.572 L 328.621 319.473 329.522 318.659 C 330.362 317.900,330.550 317.672,330.336 317.672 C 330.288 317.672,329.883 318.077,329.435 318.572 M54.054 318.313 C 54.054 318.360,54.459 318.766,54.955 319.214 L 55.856 320.028 55.042 319.127 C 54.283 318.287,54.054 318.099,54.054 318.313 M326.945 321.344 L 325.849 322.523 327.027 321.427 C 328.123 320.408,328.333 320.166,328.123 320.166 C 328.077 320.166,327.547 320.696,326.945 321.344 M57.519 322.107 C 58.270 322.869,58.947 323.493,59.023 323.493 C 59.099 323.493,58.547 322.869,57.796 322.107 C 57.045 321.344,56.369 320.721,56.292 320.721 C 56.216 320.721,56.768 321.344,57.519 322.107 M316.968 323.285 L 315.593 324.740 317.048 323.365 C 317.848 322.608,318.503 321.953,318.503 321.909 C 318.503 321.702,318.246 321.933,316.968 323.285 M321.271 327.304 L 317.810 330.839 321.344 327.378 C 324.627 324.163,325.004 323.770,324.805 323.770 C 324.765 323.770,323.174 325.360,321.271 327.304 M70.409 326.681 C 71.391 327.672,72.257 328.482,72.333 328.482 C 72.409 328.482,71.668 327.672,70.686 326.681 C 69.704 325.690,68.838 324.879,68.762 324.879 C 68.685 324.879,69.427 325.690,70.409 326.681 M60.430 325.232 C 60.430 325.274,61.396 326.241,62.578 327.380 L 64.726 329.453 62.654 327.304 C 60.730 325.309,60.430 325.029,60.430 325.232 M312.256 327.720 L 310.880 329.175 312.335 327.800 C 313.688 326.522,313.918 326.265,313.711 326.265 C 313.667 326.265,313.012 326.920,312.256 327.720 M74.012 330.007 C 74.530 330.541,75.015 330.977,75.091 330.977 C 75.168 330.977,74.807 330.541,74.290 330.007 C 73.772 329.473,73.287 329.037,73.211 329.037 C 73.134 329.037,73.495 329.473,74.012 330.007 M309.199 330.492 L 308.385 331.393 309.286 330.579 C 310.126 329.820,310.315 329.591,310.100 329.591 C 310.053 329.591,309.647 329.997,309.199 330.492 M67.625 332.155 C 68.305 332.879,68.897 333.472,68.942 333.472 C 69.150 333.472,68.930 333.223,67.706 332.074 L 66.389 330.839 67.625 332.155 M315.302 332.987 L 314.207 334.165 315.385 333.069 C 316.480 332.050,316.690 331.809,316.480 331.809 C 316.435 331.809,315.905 332.339,315.302 332.987 M69.854 334.113 C 69.854 334.161,70.260 334.566,70.755 335.014 L 71.656 335.828 70.842 334.927 C 70.083 334.087,69.854 333.899,69.854 334.113 M312.526 335.482 L 311.712 336.383 312.613 335.568 C 313.452 334.809,313.641 334.581,313.427 334.581 C 313.379 334.581,312.974 334.986,312.526 335.482 M174.151 374.134 C 174.418 374.204,174.854 374.204,175.121 374.134 C 175.388 374.065,175.170 374.007,174.636 374.007 C 174.103 374.007,173.884 374.065,174.151 374.134 M177.342 374.416 C 177.687 374.483,178.186 374.480,178.451 374.411 C 178.716 374.341,178.434 374.287,177.824 374.290 C 177.214 374.293,176.997 374.350,177.342 374.416 M205.752 374.411 C 206.019 374.481,206.455 374.481,206.722 374.411 C 206.989 374.342,206.771 374.285,206.237 374.285 C 205.703 374.285,205.485 374.342,205.752 374.411 M181.362 374.696 C 181.783 374.760,182.407 374.759,182.748 374.693 C 183.089 374.627,182.744 374.575,181.982 374.577 C 181.220 374.579,180.941 374.633,181.362 374.696 M201.321 374.696 C 201.742 374.760,202.366 374.759,202.707 374.693 C 203.047 374.627,202.703 374.575,201.940 374.577 C 201.178 374.579,200.899 374.633,201.321 374.696 M189.273 374.982 C 190.844 375.031,193.339 375.031,194.817 374.981 C 196.296 374.932,195.010 374.891,191.961 374.891 C 188.912 374.891,187.702 374.932,189.273 374.982 M175.814 380.233 C 176.081 380.302,176.518 380.302,176.784 380.233 C 177.051 380.163,176.833 380.106,176.299 380.106 C 175.766 380.106,175.547 380.163,175.814 380.233 M207.415 380.233 C 207.682 380.302,208.119 380.302,208.385 380.233 C 208.652 380.163,208.434 380.106,207.900 380.106 C 207.367 380.106,207.148 380.163,207.415 380.233 M179.279 380.514 C 179.622 380.580,180.184 380.580,180.527 380.514 C 180.870 380.448,180.589 380.394,179.903 380.394 C 179.217 380.394,178.936 380.448,179.279 380.514 M203.396 380.514 C 203.739 380.580,204.300 380.580,204.643 380.514 C 204.986 380.448,204.705 380.394,204.019 380.394 C 203.333 380.394,203.053 380.448,203.396 380.514 M184.553 380.799 C 185.205 380.858,186.203 380.857,186.771 380.797 C 187.339 380.738,186.805 380.690,185.586 380.691 C 184.366 380.692,183.901 380.741,184.553 380.799 M197.305 380.799 C 197.957 380.858,198.955 380.857,199.522 380.797 C 200.090 380.738,199.556 380.690,198.337 380.691 C 197.117 380.692,196.653 380.741,197.305 380.799 " stroke="none" fill="#9a75d9" fill-rule="evenodd"></path><path id="path4" d="M97.481 244.418 C 97.409 244.534,102.328 244.595,108.412 244.554 L 119.473 244.478 119.473 246.418 L 119.473 248.357 115.246 248.434 L 111.019 248.510 110.880 260.195 C 110.804 266.622,110.835 271.823,110.949 271.752 C 111.064 271.681,111.157 266.457,111.157 260.143 L 111.157 248.663 115.385 248.587 L 119.612 248.510 119.612 246.431 L 119.612 244.352 108.612 244.280 C 102.561 244.240,97.552 244.302,97.481 244.418 M131.333 244.418 C 132.138 244.474,133.386 244.474,134.105 244.417 C 134.824 244.360,134.165 244.314,132.640 244.315 C 131.116 244.315,130.527 244.362,131.333 244.418 M150.450 244.420 C 152.013 244.470,154.570 244.470,156.133 244.420 C 157.696 244.371,156.417 244.330,153.292 244.330 C 150.166 244.330,148.888 244.371,150.450 244.420 M175.398 244.421 C 178.333 244.466,183.136 244.466,186.071 244.421 C 189.006 244.376,186.604 244.339,180.735 244.339 C 174.865 244.339,172.464 244.376,175.398 244.421 M205.683 244.419 L 214.276 244.499 214.276 246.430 L 214.276 248.361 207.970 248.436 L 201.663 248.510 201.663 251.975 L 201.663 255.440 207.943 255.579 C 211.398 255.655,214.166 255.624,214.095 255.509 C 214.024 255.395,211.229 255.301,207.884 255.301 L 201.802 255.301 201.802 251.980 L 201.802 248.659 208.108 248.585 L 214.414 248.510 214.414 246.431 L 214.414 244.352 205.752 244.346 L 197.089 244.340 205.683 244.419 M223.216 244.420 C 224.702 244.470,227.134 244.470,228.621 244.420 C 230.107 244.370,228.891 244.329,225.918 244.329 C 222.945 244.329,221.729 244.370,223.216 244.420 M147.533 258.126 C 147.499 265.550,147.564 271.681,147.678 271.752 C 147.867 271.869,147.864 261.932,147.671 249.480 C 147.629 246.812,147.567 250.703,147.533 258.126 M169.766 246.708 L 169.785 248.510 174.009 248.587 L 178.234 248.663 178.311 260.021 L 178.388 271.379 178.383 259.945 L 178.378 248.510 174.164 248.434 L 169.949 248.357 169.848 246.632 L 169.747 244.906 169.766 246.708 M196.597 258.126 C 196.563 265.550,196.629 271.681,196.743 271.752 C 196.932 271.869,196.928 261.932,196.735 249.480 C 196.694 246.812,196.632 250.703,196.597 258.126 M84.061 248.293 C 84.480 248.356,85.166 248.356,85.586 248.293 C 86.005 248.229,85.662 248.177,84.823 248.177 C 83.985 248.177,83.642 248.229,84.061 248.293 M97.478 248.441 C 97.549 248.555,99.471 248.649,101.749 248.649 L 105.891 248.649 105.891 260.136 C 105.891 266.454,105.984 271.681,106.098 271.752 C 106.213 271.823,106.244 266.622,106.168 260.195 L 106.029 248.510 101.689 248.371 C 99.302 248.295,97.407 248.326,97.478 248.441 M187.665 248.360 L 183.368 248.510 183.229 260.195 C 183.153 266.622,183.184 271.823,183.299 271.752 C 183.413 271.681,183.507 266.454,183.507 260.136 L 183.507 248.649 187.648 248.649 C 190.110 248.649,191.859 248.536,191.961 248.371 C 192.055 248.219,192.094 248.120,192.047 248.153 C 192.000 248.185,190.028 248.278,187.665 248.360 M166.963 252.529 C 166.963 253.520,167.014 253.926,167.075 253.430 C 167.137 252.935,167.137 252.124,167.075 251.629 C 167.014 251.133,166.963 251.538,166.963 252.529 M154.063 257.169 C 154.869 257.226,156.116 257.225,156.835 257.168 C 157.554 257.111,156.895 257.065,155.371 257.066 C 153.846 257.067,153.258 257.113,154.063 257.169 M226.403 257.169 C 227.204 257.225,228.514 257.225,229.314 257.169 C 230.114 257.113,229.459 257.067,227.859 257.067 C 226.258 257.067,225.603 257.113,226.403 257.169 M236.991 258.559 L 236.036 259.598 237.076 258.643 C 237.647 258.117,238.115 257.650,238.115 257.603 C 238.115 257.392,237.880 257.591,236.991 258.559 M201.651 263.617 L 201.663 267.637 207.900 267.645 L 214.137 267.652 207.977 267.570 L 201.817 267.488 201.728 263.543 L 201.639 259.598 201.651 263.617 M154.528 261.330 C 155.588 261.384,156.649 261.577,156.884 261.760 C 157.259 262.052,157.264 262.033,156.931 261.608 C 156.624 261.216,156.170 261.133,154.575 261.177 L 152.599 261.231 154.528 261.330 M226.133 261.326 C 226.785 261.385,227.783 261.384,228.351 261.324 C 228.919 261.265,228.385 261.217,227.166 261.218 C 225.946 261.219,225.481 261.267,226.133 261.326 M94.601 264.172 C 94.601 264.858,94.655 265.139,94.721 264.796 C 94.787 264.453,94.787 263.891,94.721 263.548 C 94.655 263.205,94.601 263.486,94.601 264.172 M76.209 265.766 L 75.537 266.528 76.369 265.835 C 76.826 265.454,77.252 265.111,77.316 265.073 C 77.379 265.035,77.307 265.003,77.156 265.003 C 77.005 265.003,76.579 265.347,76.209 265.766 M74.720 267.482 C 74.452 267.778,74.298 268.184,74.378 268.383 C 74.490 268.662,74.528 268.655,74.545 268.352 C 74.557 268.135,74.773 267.730,75.026 267.451 C 75.278 267.172,75.422 266.944,75.346 266.944 C 75.270 266.944,74.988 267.186,74.720 267.482 M82.817 272.407 C 83.162 272.473,83.661 272.471,83.926 272.401 C 84.191 272.332,83.909 272.278,83.299 272.281 C 82.689 272.284,82.472 272.340,82.817 272.407 M85.034 272.407 C 85.379 272.473,85.878 272.471,86.143 272.401 C 86.408 272.332,86.126 272.278,85.516 272.281 C 84.906 272.284,84.690 272.340,85.034 272.407 " stroke="none" fill="#be7181" fill-rule="evenodd"></path></g></svg>